<svg width="128" height="23" viewBox="0 0 128 23" fill="none" xmlns="http://www.w3.org/2000/svg">
<path d="M0.276 17V1.16H14.796V3.536H2.674V7.892H12.42V10.268H2.674V14.624H14.796V17H0.276ZM17.3617 11.676V9.3H26.1617V11.676H17.3617ZM31.653 17C31.125 17 30.6483 16.868 30.223 16.604C29.7977 16.34 29.453 15.9953 29.189 15.57C28.925 15.1447 28.793 14.668 28.793 14.14V0.0599991H31.169V14.074C31.169 14.2207 31.2203 14.3527 31.323 14.47C31.4403 14.5727 31.5723 14.624 31.719 14.624H34.029V17H31.653ZM38.6615 17C38.1335 17 37.6569 16.868 37.2315 16.604C36.8062 16.34 36.4615 15.9953 36.1975 15.57C35.9335 15.1447 35.8015 14.668 35.8015 14.14V7.1C35.8015 6.572 35.9335 6.09533 36.1975 5.67C36.4615 5.24467 36.8062 4.9 37.2315 4.636C37.6569 4.372 38.1335 4.24 38.6615 4.24H45.9215C46.4495 4.24 46.9262 4.372 47.3515 4.636C47.7915 4.88533 48.1362 5.23 48.3855 5.67C48.6495 6.11 48.7815 6.58667 48.7815 7.1V11.808H38.1775V14.074C38.1775 14.2207 38.2289 14.3527 38.3315 14.47C38.4489 14.5727 38.5809 14.624 38.7275 14.624H48.7815V17H38.6615ZM38.1775 9.586H46.3835V7.166C46.3835 7.01933 46.3322 6.89467 46.2295 6.792C46.1269 6.67467 46.0022 6.616 45.8555 6.616H38.7275C38.5809 6.616 38.4489 6.67467 38.3315 6.792C38.2289 6.89467 38.1775 7.01933 38.1775 7.166V9.586ZM54.136 17C53.608 17 53.124 16.868 52.684 16.604C52.2586 16.34 51.914 15.9953 51.65 15.57C51.4006 15.1447 51.276 14.668 51.276 14.14V9.432H61.858V7.166C61.858 7.01933 61.8066 6.89467 61.704 6.792C61.6013 6.67467 61.4766 6.616 61.33 6.616H51.276V4.24H61.396C61.924 4.24 62.4006 4.372 62.826 4.636C63.266 4.88533 63.6106 5.23 63.86 5.67C64.124 6.11 64.256 6.58667 64.256 7.1V17H54.136ZM54.202 14.624H61.858V11.654H53.652V14.074C53.652 14.2207 53.7033 14.3527 53.806 14.47C53.9233 14.5727 54.0553 14.624 54.202 14.624ZM66.492 17V7.1C66.492 6.572 66.624 6.09533 66.888 5.67C67.152 5.24467 67.4967 4.9 67.922 4.636C68.362 4.372 68.8387 4.24 69.352 4.24H76.48V6.616H69.418C69.2714 6.616 69.1394 6.67467 69.022 6.792C68.9194 6.89467 68.868 7.01933 68.868 7.166V17H66.492ZM78.2717 17V4.24H88.3917C88.9197 4.24 89.3963 4.372 89.8217 4.636C90.2617 4.9 90.6063 5.24467 90.8557 5.67C91.1197 6.09533 91.2517 6.572 91.2517 7.1V17H88.8757V7.166C88.8757 7.01933 88.817 6.89467 88.6997 6.792C88.597 6.67467 88.4723 6.616 88.3257 6.616H81.1977C81.051 6.616 80.919 6.67467 80.8017 6.792C80.699 6.89467 80.6477 7.01933 80.6477 7.166V17H78.2717ZM93.766 17V4.24H96.142V17H93.766ZM93.766 2.436V0.0599991H96.142V2.436H93.766ZM98.907 17V4.24H109.027C109.555 4.24 110.032 4.372 110.457 4.636C110.897 4.9 111.242 5.24467 111.491 5.67C111.755 6.09533 111.887 6.572 111.887 7.1V17H109.511V7.166C109.511 7.01933 109.452 6.89467 109.335 6.792C109.232 6.67467 109.108 6.616 108.961 6.616H101.833C101.686 6.616 101.554 6.67467 101.437 6.792C101.334 6.89467 101.283 7.01933 101.283 7.166V17H98.907ZM116.317 22.038V19.64H124.127C124.274 19.64 124.399 19.5813 124.501 19.464C124.619 19.3613 124.677 19.2367 124.677 19.09V17H116.933C116.42 17 115.943 16.8753 115.503 16.626C115.063 16.362 114.711 16.01 114.447 15.57C114.198 15.13 114.073 14.6533 114.073 14.14V7.1C114.073 6.572 114.205 6.09533 114.469 5.67C114.733 5.24467 115.078 4.9 115.503 4.636C115.943 4.372 116.42 4.24 116.933 4.24H124.193C124.721 4.24 125.198 4.372 125.623 4.636C126.063 4.9 126.408 5.24467 126.657 5.67C126.921 6.09533 127.053 6.572 127.053 7.1V19.178C127.053 19.706 126.921 20.1827 126.657 20.608C126.408 21.048 126.063 21.3927 125.623 21.642C125.198 21.906 124.721 22.038 124.193 22.038H116.317ZM116.999 14.624H124.127C124.274 14.624 124.399 14.5727 124.501 14.47C124.619 14.3527 124.677 14.2207 124.677 14.074V7.166C124.677 7.01933 124.619 6.89467 124.501 6.792C124.399 6.67467 124.274 6.616 124.127 6.616H116.999C116.853 6.616 116.721 6.67467 116.603 6.792C116.501 6.89467 116.449 7.01933 116.449 7.166V14.074C116.449 14.2207 116.501 14.3527 116.603 14.47C116.721 14.5727 116.853 14.624 116.999 14.624Z" fill="#157AFE"/>
</svg>
