<svg width="147" height="27" viewBox="0 0 147 27" fill="none" xmlns="http://www.w3.org/2000/svg">
<path fill-rule="evenodd" clip-rule="evenodd" d="M12.1679 19.6465L4.72265 24.1336L6.58397 16.0568L1 10.6722L8.44529 9.77482L12.1679 2.59543L15.8906 9.77482L23.3359 10.6722L17.7519 16.0568L19.6132 24.1336L12.1679 19.6465Z" fill="#EDC90E" stroke="#DAC34A" stroke-linecap="round" stroke-linejoin="round"/>
<path fill-rule="evenodd" clip-rule="evenodd" d="M42.4809 19.6465L35.0356 24.1336L36.8969 16.0568L31.313 10.6722L38.7583 9.77482L42.4809 2.59543L46.2036 9.77482L53.6489 10.6722L48.0649 16.0568L49.9262 24.1336L42.4809 19.6465Z" fill="#EDC90E" stroke="#DAC34A" stroke-linecap="round" stroke-linejoin="round"/>
<path fill-rule="evenodd" clip-rule="evenodd" d="M102.708 19.6465L95.5286 24.1336L97.3235 16.0568L91.9389 10.6722L99.1183 9.77482L102.708 2.59543L106.298 9.77482L113.477 10.6722L108.093 16.0568L109.887 24.1336L102.708 19.6465Z" fill="#EDC90E" stroke="#DAC34A" stroke-linecap="round" stroke-linejoin="round"/>
<path fill-rule="evenodd" clip-rule="evenodd" d="M133.021 19.6465L125.842 24.1336L127.636 16.0568L122.252 10.6722L129.431 9.77482L133.021 2.59543L136.611 9.77482L143.79 10.6722L138.406 16.0568L140.2 24.1336L133.021 19.6465Z" fill="#EDC90E" stroke="#DAC34A" stroke-linecap="round" stroke-linejoin="round"/>
<path fill-rule="evenodd" clip-rule="evenodd" d="M72.395 19.6465L65.2156 24.1336L67.0105 16.0568L61.626 10.6722L68.8053 9.77482L72.395 2.59543L75.9847 9.77482L83.1641 10.6722L77.7796 16.0568L79.5744 24.1336L72.395 19.6465Z" fill="#EDC90E" stroke="#DAC34A" stroke-linecap="round" stroke-linejoin="round"/>
<path d="M139.802 16.4556L141.397 25.729H140.599L132.622 21.0923V1L134.616 4.86391L136.611 8.72781L145.385 10.2734L139.802 16.4556Z" fill="white" stroke="#F8F8F8"/>
</svg>
